# xmcd
# 
# Track frame offsets:
#     150
#     13658
#     29098
#     43210
#     60978
#     76067
#     91400
#     109599
#     125629
#     141838
#     159419
#     179092
#     196203
# 
# Disc length: 2854
# 
# Revision: 3
# Processed by: cddbd v1.5.2PL0 Copyright (c) Steve Scherf et al.
# Submitted via: fre:ac v1.0.31
# 
DISCID=ae0b240d
DTITLE=Zucchero - Black Cat
DYEAR=2016
DGENRE=Bluesrock
TTITLE0=Partigiano Reggiano
TTITLE1=13 Buone Ragioni
TTITLE2=Ti Voglio Sposare
TTITLE3=Streets Of Surrender (S.O.S.) (ft. Mark Knopfler)
TTITLE4=Ten More Days
TTITLE5=L'anno Dell'amore
TTITLE6=Hey Lord
TTITLE7=Fatti Di Sogni
TTITLE8=La Tortura Della Luna
TTITLE9=Turn The World Down
TTITLE10=Terra Incognita
TTITLE11=Voci (Namanama Version)
TTITLE12=Ci Si Arrende (ft. Mark Knopfler)
EXTD=Zucchero „Sugar“ Fornaciari
EXTT0=
EXTT1=
EXTT2=
EXTT3=
EXTT4=
EXTT5=
EXTT6=
EXTT7=
EXTT8=
EXTT9=
EXTT10=
EXTT11=
EXTT12=
PLAYORDER=
